<?xml version="1.0" encoding="utf-8"?>
<!-- Svg Vector Icons : http://www.onlinewebfonts.com/icon -->
<!DOCTYPE svg PUBLIC "-//W3C//DTD SVG 1.1//EN" "http://www.w3.org/Graphics/SVG/1.1/DTD/svg11.dtd">
<svg version="1.1" xmlns="http://www.w3.org/2000/svg" xmlns:xlink="http://www.w3.org/1999/xlink" x="0px" y="0px" viewBox="0 0 1000 1000" enable-background="new 0 0 1000 1000" xml:space="preserve">
<metadata> Svg Vector Icons : http://www.onlinewebfonts.com/icon </metadata>
<g><path d="M952.3,500c0,16.7-7.2,31.7-18.7,42v0L745.1,711.7v0c-10,9-23.3,14.5-37.8,14.5c-31.2,0-56.5-25.3-56.5-56.5c0-16.7,7.2-31.7,18.7-42l0,0l78.9-71.1H405.8l0,0c-31.2,0-56.5-25.3-56.5-56.5s25.3-56.5,56.5-56.5l0,0h342.7l-78.9-71v0c-11.5-10.3-18.7-25.3-18.7-42c0-31.2,25.3-56.5,56.5-56.5c14.5,0,27.8,5.5,37.8,14.5l0,0L933.6,458l0,0C945.1,468.3,952.3,483.3,952.3,500z M386.9,123.1H160.8v753.8h226.2c31.2,0,56.5,25.3,56.5,56.5c0,31.2-25.3,56.5-56.5,56.5H104.2c-31.2,0-56.5-25.3-56.5-56.5V66.5C47.7,35.3,73,10,104.2,10h282.7c31.2,0,56.5,25.3,56.5,56.5C443.5,97.8,418.2,123.1,386.9,123.1z"/></g>
</svg>